<?xml version="1.0" standalone="no"?>
<!DOCTYPE svg PUBLIC "-//W3C//DTD SVG 20010904//EN"
 "http://www.w3.org/TR/2001/REC-SVG-20010904/DTD/svg10.dtd">
<svg version="1.0" xmlns="http://www.w3.org/2000/svg"
 width="500.000000pt" height="500.000000pt" viewBox="0 0 500.000000 500.000000"
 preserveAspectRatio="xMidYMid meet">
<metadata>
Created by potrace 1.14, written by Peter Selinger 2001-2017
</metadata>
<g transform="translate(0.000000,500.000000) scale(0.100000,-0.100000)"
fill="#000000" stroke="none">
<path d="M2037 4988 c-20 -16 -444 -747 -453 -781 -4 -20 18 -66 106 -219 62
-106 123 -211 135 -233 116 -205 199 -342 213 -353 9 -7 15 -19 13 -25 -2 -7
-5 -25 -8 -42 -3 -16 -8 -34 -13 -40 -4 -5 -70 -118 -145 -250 -180 -314 -174
-303 -244 -425 -70 -120 -70 -121 -11 -220 21 -36 117 -202 213 -369 147 -256
173 -308 167 -330 -4 -16 -1 -40 7 -63 l14 -36 -77 -134 c-42 -73 -87 -151
-99 -173 -27 -46 -98 -170 -198 -340 -43 -74 -70 -132 -70 -150 -1 -18 14 -53
36 -88 20 -31 37 -59 37 -62 0 -12 366 -632 379 -642 12 -9 126 -12 459 -13
l443 0 23 23 c13 12 74 110 135 217 61 107 115 202 121 210 9 14 64 110 100
175 10 17 32 55 50 85 52 88 53 95 25 148 -14 26 -30 54 -35 62 -16 25 -292
502 -312 540 -43 82 -76 133 -90 141 -18 10 -13 85 7 109 15 17 155 257 155
265 0 3 9 15 20 27 10 12 17 24 15 28 -3 4 6 19 18 32 13 14 21 30 19 36 -2 7
1 12 8 12 6 0 8 5 5 10 -3 6 -2 10 4 10 6 0 13 11 17 25 3 14 10 25 14 25 4 0
14 15 21 33 7 17 20 38 27 46 8 8 19 27 24 43 6 15 14 28 20 28 5 0 7 4 4 8
-3 5 3 18 14 29 10 12 16 24 13 27 -4 3 0 6 7 6 7 0 10 3 7 6 -4 4 2 19 12 33
32 46 32 70 1 126 -16 29 -26 56 -22 60 4 5 1 5 -5 1 -8 -4 -13 -1 -13 8 0 8
-3 16 -7 18 -5 2 -24 33 -43 70 -19 37 -38 68 -42 68 -5 0 -8 6 -8 14 0 7 -7
19 -15 26 -9 7 -14 18 -12 24 2 6 -7 22 -19 35 -13 14 -21 28 -18 33 3 4 0 8
-5 8 -6 0 -11 6 -11 14 0 7 -7 19 -15 26 -8 7 -12 16 -9 21 3 5 0 9 -5 9 -6 0
-11 7 -11 15 0 8 -5 15 -11 15 -5 0 -7 4 -4 10 3 6 2 10 -4 10 -5 0 -13 10
-17 22 -3 12 -13 28 -20 36 -8 7 -12 17 -9 22 3 5 2 10 -3 12 -4 1 -27 38 -52
81 -24 42 -47 77 -51 77 -5 0 -14 19 -21 42 -10 34 -10 42 1 46 25 8 48 41
124 177 18 33 60 105 92 160 153 262 211 364 238 416 28 56 28 57 11 90 -50
99 -430 746 -443 756 -23 18 -900 18 -924 1z"/>
<path d="M587 4143 c-15 -18 -123 -202 -339 -577 -59 -104 -108 -199 -108
-210 0 -11 34 -78 76 -150 42 -72 88 -151 102 -176 13 -25 28 -49 32 -55 4 -5
19 -30 32 -55 127 -227 202 -348 221 -356 12 -6 213 -9 465 -9 373 1 444 3
456 16 20 21 441 749 450 777 6 19 14 5 -239 442 -103 179 -197 335 -208 348
l-20 22 -452 0 c-418 0 -453 -1 -468 -17z"/>
<path d="M3466 4127 c-15 -19 -26 -37 -26 -41 0 -3 -11 -23 -23 -44 -13 -20
-77 -129 -142 -242 -65 -113 -147 -254 -182 -314 -34 -61 -63 -118 -63 -128 0
-18 73 -154 112 -210 11 -16 17 -28 14 -28 -3 0 6 -16 19 -36 14 -20 22 -41
18 -47 -3 -6 -1 -7 5 -3 7 4 12 1 12 -8 0 -8 3 -16 8 -18 6 -3 36 -55 66 -115
6 -13 15 -23 19 -23 5 0 5 -4 2 -10 -3 -5 -1 -10 4 -10 6 0 11 -5 11 -11 0 -7
8 -18 18 -26 9 -8 11 -12 5 -8 -7 3 -13 1 -13 -4 0 -6 7 -11 15 -11 8 0 14 -3
13 -7 -4 -16 14 -53 23 -48 5 4 9 -3 9 -13 0 -11 7 -25 15 -32 8 -7 15 -17 15
-23 0 -6 8 -19 18 -30 12 -15 13 -18 2 -12 -8 4 -5 -2 8 -14 12 -12 20 -26 17
-32 -4 -5 3 -9 15 -9 12 0 19 -4 16 -8 -2 -4 20 -8 49 -8 30 0 52 3 49 7 -2 4
5 5 16 2 11 -3 17 -10 13 -17 -5 -8 -3 -8 8 0 8 6 33 10 56 9 29 -1 40 1 36 9
-5 8 -3 8 8 0 16 -12 656 -13 676 -1 11 7 48 67 110 177 11 19 40 69 65 110
24 41 47 82 51 90 4 8 15 29 26 45 10 17 45 77 78 135 34 58 70 121 82 140 48
80 53 97 35 132 -54 104 -429 745 -442 756 -12 9 -121 12 -468 12 l-453 0 -25
-33z"/>
<path d="M3570 2453 c0 -4 -17 -8 -37 -8 -45 1 -60 -12 -99 -82 -16 -29 -33
-53 -37 -53 -5 0 -6 -4 -2 -9 3 -5 -1 -16 -9 -24 -8 -8 -12 -17 -9 -21 4 -3 1
-6 -5 -6 -7 0 -12 -7 -12 -15 0 -9 -7 -18 -15 -21 -8 -4 -13 -10 -10 -14 3 -4
-6 -24 -20 -44 -14 -20 -25 -41 -25 -46 0 -6 -5 -10 -11 -10 -5 0 -7 -4 -4
-10 3 -5 1 -10 -5 -10 -6 0 -8 -4 -5 -10 3 -5 1 -10 -5 -10 -6 0 -8 -4 -5 -10
3 -5 1 -10 -4 -10 -6 0 -11 -7 -11 -15 0 -8 -5 -15 -11 -15 -5 0 -8 -4 -4 -9
3 -6 -2 -14 -11 -19 -9 -5 -15 -13 -15 -18 1 -5 -37 -75 -84 -155 -47 -81 -85
-154 -85 -164 0 -10 41 -88 90 -173 50 -85 90 -158 90 -163 0 -5 5 -9 10 -9 6
0 10 -4 10 -9 0 -19 234 -416 254 -433 19 -15 63 -17 467 -17 447 0 447 0 466
22 24 27 103 162 103 175 0 6 4 12 8 14 7 3 31 42 100 168 14 25 28 50 32 55
35 46 203 354 203 372 0 13 -12 41 -27 63 -14 22 -26 41 -26 44 0 2 -46 82
-101 177 -56 96 -109 188 -118 204 -83 151 -169 289 -185 300 -16 9 -93 12
-316 11 -164 -1 -301 2 -307 7 -8 5 -13 6 -13 1 0 -13 -63 -11 -72 1 -5 7 -8
7 -8 0 0 -11 -91 -12 -109 -1 -6 4 -11 4 -11 -1z"/>
<path d="M603 2439 c-13 -5 -66 -87 -140 -216 -66 -114 -166 -288 -222 -386
-73 -125 -102 -185 -99 -201 7 -36 437 -775 458 -786 10 -5 197 -9 459 -9 395
1 443 3 460 17 16 14 142 224 253 422 14 25 66 115 117 201 65 112 89 162 84
175 -7 20 -111 202 -181 318 -23 37 -42 69 -42 71 0 2 -19 36 -43 77 -24 40
-56 96 -71 123 -58 103 -109 186 -120 193 -15 9 -887 11 -913 1z"/>
</g>
</svg>
